<?xml version="1.0" encoding="UTF-8" standalone="no"?>
<svg
   xmlns:svg="http://www.w3.org/2000/svg"
   xmlns="http://www.w3.org/2000/svg"
   version="1.1"
   width="745.1734"
   height="171.3911"
   id="svg3987">
  <defs
     id="defs3989" />
  <g
     transform="translate(24.01527,-458.09521)"
     id="layer1">
    <path
       d="m 141.06626,458.09521 0,58.09398 573.44803,0 0,-58.09398 -573.44803,0 z m -165.08153,93.84412 0,77.54626 112.507795,0 0,-14.45778 -59.539756,0 0,-16.8236 59.539756,0 0,-14.85208 -59.802625,0 0,-16.95503 59.802625,0 0,-14.45777 -112.507795,0 z"
       id="path912"
       style="fill:#d4082c;fill-opacity:1;fill-rule:nonzero;stroke:none" />
    <path
       d="m 164.59301,551.93933 c -13.02777,0 -23.52675,10.59886 -23.52675,23.65818 l 0,53.88808 102.12448,0 c 0,0 0.13123,-10.3728 0.13123,-11.43479 0,-1.04622 -0.75181,-1.55618 -1.57721,-1.57721 -0.79913,-0.0294 -66.90008,0 -66.90008,0 l 0,-19.18942 58.09397,0 0,-11.30335 c 0,-0.97261 -0.61511,-1.57721 -1.57721,-1.57721 l -56.51676,0 0,-19.58372 68.34585,0 0,-11.56622 c 0,-1.04096 -0.62037,-1.31434 -1.44577,-1.31434 l -77.15196,0 z m 116.05652,0 c -13.00148,0 -23.52675,10.59886 -23.52675,23.65818 l 0,53.88808 103.04453,0 0,-43.50477 c 0,-0.82015 -0.78335,-1.57721 -1.57722,-1.57721 -0.70974,0 -36.28639,0.13122 -44.95054,0.13122 -0.9989,0 -1.57721,0.66769 -1.57721,1.44578 l 0,11.30335 34.69866,0 0,18.00651 -55.99103,0 0,-50.60222 69.39734,0 0,-11.43479 c 0,-0.98313 -0.60986,-1.31434 -1.57722,-1.31434 l -77.94056,0 z m 118.55378,0 c -13.00149,0 -23.52675,10.5936 -23.52675,23.65818 l 0,53.88808 103.04452,0 0,-43.50477 c 0,-0.82015 -0.66243,-1.57721 -1.44578,-1.57721 -0.715,0 -36.28113,0.13122 -44.95054,0.13122 -0.99364,0 -1.44578,0.66243 -1.44578,1.44578 0,0.78335 -0.13122,11.30335 -0.13122,11.30335 l 34.69866,0 0,18.00651 -55.99103,0 0,-50.60222 69.2659,0 0,-11.43479 c 0,-0.98313 -0.48368,-1.31434 -1.44578,-1.31434 l -78.07199,0 z m 118.81664,0 c -13.02252,0 -23.52675,10.59886 -23.52675,23.65818 l 0,53.88808 102.12448,0 0,-11.43479 c 0,-1.04622 -0.62562,-1.55618 -1.44577,-1.57721 -0.80438,-0.0294 -66.90008,0 -66.90008,0 l 0,-19.18942 57.96254,0 0,-11.30335 c 0,-0.97261 -0.48368,-1.57721 -1.44578,-1.57721 l -56.51676,0 0,-19.58372 68.34585,0 0,-11.56622 c 0,-1.0357 -0.75706,-1.31434 -1.57721,-1.31434 l -77.02052,0 z m 115.79365,0 c -12.99622,0 -23.39531,10.5936 -23.39531,23.65818 l 0,53.88808 33.64719,0 0,-32.20142 c 0,0 35.92889,30.7977 34.69867,29.96703 1.55618,1.25126 2.27644,2.26593 3.81159,2.23439 l 36.93305,0 c 3.63285,0 0.13123,-2.76012 0.13123,-2.76012 l -34.69867,-29.4413 9.2004,0 c 11.25604,0 20.37233,-11.4453 20.37233,-22.73814 0,-11.28758 -9.01114,-22.6067 -20.24089,-22.6067 l -60.4598,0 z m 10.25188,12.88056 45.47628,0 c 3.89572,0 8.8061,3.03876 8.8061,9.85758 0,6.15638 -5.21005,9.85757 -8.8061,9.85757 l -45.47628,0 0,-19.71515 z"
       id="path924"
       style="fill:#000000;fill-opacity:1;fill-rule:nonzero;stroke:none" />
  </g>
</svg>
