<?xml version="1.0" encoding="UTF-8" standalone="no"?>
<!-- Created with Inkscape (http://www.inkscape.org/) -->
<svg
   xmlns:svg="http://www.w3.org/2000/svg"
   xmlns="http://www.w3.org/2000/svg"
   version="1.0"
   width="709"
   height="302"
   viewBox="-0.62 -0.897 709 302"
   id="svg2"
   xml:space="preserve">
	<defs
   id="defs4">
	</defs>
	<g
   id="g6">
		<path
   d="M 687.772,187.258 C 676.285,189.121 669.798,189.775 663.558,189.775 C 648.394,189.775 626.808,185.442 604.144,177.731 L 570.165,166.235 C 552.224,160.147 525.45,155.137 510.753,155.137 C 496.205,155.137 469.346,160.158 451.434,166.235 L 417.496,177.731 C 394.792,185.424 373.165,189.775 358.019,189.775 C 342.906,189.775 321.304,185.424 298.63,177.731 L 264.608,166.235 C 246.725,160.147 219.943,155.126 205.349,155.137 C 190.654,155.137 163.824,160.147 145.911,166.235 L 111.903,177.731 C 89.258,185.442 67.687,189.775 52.53,189.775 C 46.243,189.775 39.811,189.122 28.293,187.258 L 29.764,189.59 C 32.995,195.06 34.766,197.412 39.101,202.504 C 45.056,203.289 47.465,203.515 52.232,203.515 C 67.387,203.515 92.117,198.769 111.904,192.063 L 145.912,180.573 C 168.991,172.757 190.089,168.497 205.35,168.497 C 218.203,168.497 240.637,172.634 256.225,177.851 L 298.631,192.063 C 318.698,198.798 343.263,203.515 358.049,203.515 C 372.936,203.515 397.496,198.798 417.497,192.063 L 459.861,177.851 C 475.475,172.633 497.939,168.497 510.81,168.497 C 526.058,168.497 547.106,172.757 570.165,180.573 L 604.144,192.063 C 623.972,198.769 648.664,203.515 663.924,203.515 C 668.655,203.515 671.023,203.289 677.055,202.504 C 681.833,196.829 683.24,194.893 686.412,189.59 L 687.772,187.258"
   style="fill:#323b95"
   id="path8" />
		<path
   d="M 637.121,235.036 L 587.656,219.857 C 565.481,212.999 556.851,210.693 544.991,207.995 C 532.455,205.209 519.892,203.647 510.754,203.647 C 496.4,203.647 469.068,208.756 451.435,214.695 L 417.497,226.235 C 394.504,233.981 373.34,238.288 357.857,238.288 C 342.401,238.288 321.42,234.008 298.346,226.235 L 264.306,214.695 C 246.725,208.768 219.24,203.647 204.945,203.647 C 195.878,203.647 183.18,205.209 170.747,207.995 C 159.034,210.617 149.707,213.21 128.015,219.857 L 78.645,235.036 C 83.902,239.876 85.316,240.963 91.228,244.965 L 118.678,236.615 L 141.357,229.929 L 150.482,227.216 C 174.62,220.068 191.042,217.018 204.976,217.018 C 217.587,217.018 240.551,221.225 255.851,226.34 L 298.348,240.616 C 318.16,247.302 342.818,252.004 357.873,252.004 C 372.899,252.004 397.737,247.246 417.498,240.616 L 459.862,226.34 C 475.12,221.231 498.199,217.018 510.811,217.018 C 524.789,217.018 541.055,220.068 565.242,227.216 L 574.304,229.929 L 597.044,236.615 L 624.53,244.965 C 630.447,240.942 631.83,239.846 637.121,235.036"
   style="fill:#323b95"
   id="path10" />
		<path
   d="M 581.767,267.198 L 578.699,266.061 L 570.166,263.284 C 545.548,255.837 525.799,252.11 510.754,252.11 C 498.17,252.11 476.832,255.76 459.861,260.782 L 451.434,263.284 C 447.105,264.676 444.279,265.61 442.902,266.061 L 434.398,269.014 L 425.97,271.92 L 417.496,274.776 C 391.656,283.146 373.339,286.832 358.019,286.832 C 344.931,286.832 325.441,283.272 307.114,277.451 L 298.63,274.776 L 290.154,271.92 L 281.684,269.014 L 273.257,266.061 L 264.607,263.284 C 240.053,255.837 220.284,252.11 205.348,252.11 C 192.617,252.11 171.312,255.749 154.382,260.782 L 145.911,263.284 C 139.899,265.215 138.661,265.61 134.314,267.198 L 151.36,276.095 L 155.233,274.941 C 175.137,268.756 192.294,265.54 205.378,265.54 C 216.364,265.54 233.578,268.37 247.706,272.448 L 256.224,274.941 L 264.607,277.616 L 273.257,280.493 L 281.684,283.426 L 290.154,286.294 L 298.63,289.083 C 324.161,296.935 342.864,300.532 358.048,300.532 C 371.106,300.532 390.982,297.046 408.953,291.643 L 417.496,289.082 L 425.97,286.293 L 434.398,283.425 L 442.902,280.492 L 451.434,277.615 L 459.861,274.94 C 481.584,268.503 497.535,265.539 510.81,265.539 C 523.932,265.56 540.998,268.756 560.892,274.94 L 564.702,276.094 L 581.767,267.198"
   style="fill:#323b95"
   id="path12" />
		<path
   d="M 96.738,66.58 L 96.738,103.733 C 88.311,107.293 79.788,109.062 71.332,109.062 C 49.553,109.062 34.219,92.251 34.219,68.295 C 34.219,42.54 52.531,24.597 78.793,24.597 C 93.516,24.597 108.053,28.725 125.696,37.71 L 125.696,13 C 103.17,3.839 92.03,1.201 75.368,1.201 C 29.351,1.201 0,27.214 0,67.938 C 0,106.648 28.519,132.42 71.361,132.42 C 90.496,132.42 113.141,126.358 129.64,116.67 L 129.64,66.58 L 96.738,66.58"
   style="fill:#323b95"
   id="path14" />
		<path
   d="M 156.883,4.84 L 156.883,128.846 L 189.284,128.846 L 189.284,28.197 L 203.247,28.197 C 221.536,28.197 229.708,34.036 229.708,47.061 C 229.708,60.404 220.55,67.938 204.426,67.938 L 197.307,67.73 L 193.718,67.73 L 238.674,128.846 L 280.059,128.846 L 238.803,78.956 C 254.137,72.092 262.252,59.764 262.252,43.722 C 262.252,17.389 245.252,4.839 209.755,4.839 L 156.883,4.839"
   style="fill:#323b95"
   id="path16" />
		<polyline
   fill="#323B95"
   points="458.082,4.84 458.082,128.846 490.474,128.846 490.474,75.795 547.645,75.795 547.645,128.846     580.015,128.846 580.015,4.84 547.645,4.84 547.645,50.697 490.474,50.697 490.474,4.84 458.082,4.84 "
   id="polyline18"
   style="fill:#323b95" />
		<polyline
   fill="#323B95"
   points="614.553,4.84 614.553,128.846 707.656,128.846 707.656,104.571 646.876,104.571 646.876,75.057     691.542,75.057 691.542,51.699 646.876,51.699 646.876,29.121 700.575,29.121 700.575,4.84 614.553,4.84 "
   id="polyline20"
   style="fill:#323b95" />
		<path
   d="M 282.445,66.85 C 282.445,105.397 314.733,133.628 358.765,133.628 C 402.757,133.628 435.081,105.398 435.023,66.837 C 435.023,28.214 402.795,0 358.765,0 C 314.695,0 282.445,28.214 282.445,66.85 L 282.445,66.85 z M 316.509,66.836 C 316.571,41.26 333.897,23.357 358.765,23.357 C 383.632,23.357 400.91,41.275 400.91,66.85 C 400.91,92.372 383.576,110.284 358.765,110.284 C 333.974,110.284 316.509,92.354 316.509,66.836"
   style="fill:#323b95;fill-rule:evenodd"
   id="path22" />
	</g>
</svg>